# AST/ASF file generated using VICON BodyLanguage
# -----------------------------------------------
:version 1.10
:name VICON
:units
  mass 1.0
  length 0.45
  angle deg
:documentation
   .ast/.asf automatically generated from VICON data using
   VICON BodyBuilder and BodyLanguage model FoxedUp or BRILLIANT.MOD
:root
   order TX TY TZ RX RY RZ
   axis XYZ
   position 0 0 0  
   orientation 0 0 0 
:bonedata
  begin
     id 1 
     name lhipjoint
     direction 0.671379 -0.66392 0.329334 
     length 2.38647 
     axis 0 0 0  XYZ
  end
  begin
     id 2 
     name lfemur
     direction 0.34202 -0.939693 0  
     length 6.48179  
     axis 0 0 20  XYZ
    dof rx ry rz
    limits (-160.0 20.0)
           (-70.0 70.0)
           (-60.0 70.0)
  end
  begin
     id 3 
     name ltibia
     direction 0.34202 -0.939693 0   
     length 6.86524   
     axis 0 0 20   XYZ
    dof rx
    limits (-10.0 170.0)
  end
  begin
     id 4 
     name lfoot
     direction 0.204886 -0.562919 0.800715   
     length 1.73031   
     axis -90 7.62852e-016 20   XYZ
    dof rx rz
    limits (-45.0 90.0)
           (-70.0 20.0)
  end
  begin
     id 5 
     name ltoes
     direction 1.53548e-011 -4.21841e-011 1   
     length 0.828161   
     axis -90 7.62852e-016 20   XYZ
    dof rx
    limits (-90.0 20.0)
  end
  begin
     id 6 
     name rhipjoint
     direction -0.662732 -0.670855 0.332775   
     length 2.3618  
     axis 0 0 0  XYZ 
  end
  begin
     id 7 
     name rfemur
     direction -0.34202 -0.939693 0   
     length 6.3025   
     axis 0 0 -20   XYZ
    dof rx ry rz
    limits (-160.0 20.0)
           (-70.0 70.0)
           (-70.0 60.0)
  end
  begin
     id 8 
     name rtibia
     direction -0.34202 -0.939693 0   
     length 6.8732   
     axis 0 0 -20   XYZ
    dof rx
    limits (-10.0 170.0)
 end
 begin
     id 9 
     name rfoot
     direction -0.173856 -0.477665 0.861168   
     length 1.54784  
     axis -90 -7.62852e-016 -20   XYZ
    dof rx rz
    limits (-45.0 90.0)
           (-20.0 70.0)
  end
  begin
     id 10 
     name rtoes
     direction -1.53562e-011 -4.21802e-011 1   
     length 0.759618   
     axis -90 -7.62852e-016 -20   XYZ
    dof rx
    limits (-90.0 20.0)
  end
  begin
     id 11 
     name lowerback
     direction -0.0278357 0.999497 -0.0151789   
     length 1.97203   
     axis 0 0 0   XYZ
    dof rx ry rz
    limits (-20.0 45.0)
           (-30.0 30.0)
           (-30.0 30.0)
  end
  begin
     id 12 
     name upperback
     direction -0.00360622 0.997542 0.0699804   
     length 1.94709   
     axis 0 0 0   XYZ
    dof rx ry rz
    limits (-20.0 45.0)
           (-30.0 30.0)
           (-30.0 30.0)
  end
  begin
     id 13 
     name thorax
     direction 0.00907706 0.997048 0.0762461   
     length 1.95722   
     axis 0 0 0   XYZ
    dof rx ry rz
    limits (-20.0 45.0)
           (-30.0 30.0)
           (-30.0 30.0)
  end
  begin
     id 14 
     name lowerneck
     direction -0.0481835 0.99872 -0.0153927   
     length 1.63078   
     axis 0 0 0   XYZ
    dof rx ry rz
    limits (-20.0 45.0)
           (-30.0 30.0)
           (-30.0 30.0)
  end
  begin
     id 15 
     name upperneck
     direction 0.0859716 0.979226 -0.183644   
     length 1.62591   
     axis 0 0 0   XYZ
    dof rx ry rz
    limits (-20.0 45.0)
           (-30.0 30.0)
           (-30.0 30.0)
  end
  begin
     id 16
     name head
     direction 0.0324821 0.997629 -0.0606773  
     length 1.64811  
     axis 0 0 0   XYZ
    dof rx ry rz
    limits (-20.0 45.0)
           (-30.0 30.0)
           (-30.0 30.0)
  end
  begin
     id 17 
     name lclavicle
     direction 0.939609 0.311019 0.142835  
     length 3.70647  
     axis 0 0 0   XYZ
    dof ry rz
    limits (-20.0 10.0)
           (0.0 20.0)
  end
  begin
     id 18 
     name lhumerus
     direction 1 -4.48963e-011 -1.59838e-027   
     length 4.59207   
     axis 180 -30 -90   XYZ
    dof rx ry rz
    limits (-60.0 90.0)
           (-90.0 90.0)
           (-90.0 90.0)
  end
  begin
     id 19
     name lradius
     direction 1 -4.48957e-011 -1.3483e-026   
     length 2.98109   
     axis 180 -30 -90   XYZ
    dof rx
    limits (-10.0 170.0)
  end
  begin
     id 20
     name lwrist
     direction 1 -4.48954e-011 -3.11579e-026   
     length 1.49055   
     axis 2.00652e-014 90 90   XYZ
    dof ry
    limits (-180.0 0.0)
 end
  begin
     id 21 
     name lhand
     direction 1 -4.4911e-011 -6.23158e-026   
     length 0.480203   
     axis 3.97628e-014 90 90   XYZ
    dof rx rz
    limits (-90.0 90.0)
           (-45.0 45.0)
  end
  begin
     id 22 
     name lfingers
     direction 1 -4.48893e-011 -1.24632e-025   
     length 0.387152   
     axis 7.95256e-014 90 90   XYZ
    dof rx
    limits (0.0 90.0)
  end
  begin
     id 23
     name lthumb
     direction 0.707107 -6.35013e-011 0.707107   
     length 0.555875   
     axis -90 45 2.85299e-015   XYZ
    dof rx rz
    limits (-45.0 45.0)
           (-45.0 45.0)
  end
  begin
     id 24 
     name rclavicle
     direction -0.950396 0.30392 0.0661859   
     length 3.70894  
     axis 0 0 0   XYZ 
    dof ry rz
    limits (-10.0 20.0)
           (-20.0 0.0)
  end
  begin
     id 25 
     name rhumerus
     direction -1 -4.48957e-011 -2.96677e-027  
     length 4.76508   
     axis 180 30 90   XYZ
    dof rx ry rz
    limits (-90.0 60.0)
           (-90.0 90.0)
           (-90.0 90.0)
  end
  begin
     id 26 
     name rradius
     direction -1 -4.48974e-011 -1.44501e-026   
     length 2.78902   
     axis 180 30 90   XYZ
    dof rx
    limits (-10.0 170.0)
  end
  begin
     id 27 
     name rwrist
     direction -1 -4.48978e-011 -3.11579e-026   
     length 1.39451   
     axis 2.00652e-014 -90 -90   XYZ
    dof ry
    limits (-180.0 0.0)
  end
  begin
     id 28
     name rhand
     direction -1 -4.48956e-011 -6.23158e-026   
     length 0.721303   
     axis 3.97628e-014 -90 -90   XYZ
    dof rx rz
    limits (-90.0 90.0)
           (-45.0 45.0)
  end
  begin
     id 29
     name rfingers
     direction -1 -4.4899e-011 -1.24632e-025   
     length 0.581533   
     axis 7.95256e-014 -90 -90   XYZ
    dof rx
    limits (0.0 90.0)
  end
  begin
     id 30
     name rthumb
     direction -0.707107 -6.34911e-011 0.707107   
     length 0.834968   
     axis -90 -45 -2.85299e-015   XYZ
    dof rx rz
    limits (-45.0 45.0)
           (-45.0 45.0)
  end
:hierarchy
  begin
    root lhipjoint rhipjoint lowerback
    lhipjoint lfemur
    lfemur ltibia
    ltibia lfoot
    lfoot ltoes
    rhipjoint rfemur
    rfemur rtibia
    rtibia rfoot
    rfoot rtoes
    lowerback upperback
    upperback thorax
    thorax lowerneck lclavicle rclavicle
    lowerneck upperneck
    upperneck head
    lclavicle lhumerus
    lhumerus lradius
    lradius lwrist
    lwrist lhand lthumb
    lhand lfingers
    rclavicle rhumerus
    rhumerus rradius
    rradius rwrist
    rwrist rhand rthumb
    rhand rfingers
  end

#!OML:ASF I:\salsa\salsa 7_09\Patient 1\Session 1\dancerfemale.ASF
:FULLY-SPECIFIED
:DEGREES
674
root -15.808 15.7519 2.40912 -767.043 -279.99 312.604
lowerback 7.37199 5.29103 2.25922
upperback 0.955832 7.41066 3.34062
thorax -3.28153 3.70471 1.43968
lowerneck 1.5094 -2.80908 -7.62295
upperneck -5.94754 -3.61505 6.90407
head -1.9024 -1.78088 3.69706
rclavicle 9.77275e-014 -4.17448e-015
rhumerus -4.44143 17.7796 -79.0488
rradius 80.87
rwrist 3.19389
rhand 6.38393 43.9964
rfingers 7.12502
rthumb 31.6891 16.7286
lclavicle 9.77275e-014 -4.17448e-015
lhumerus -60.584 -11.4059 101.396
lradius 97.8311
lwrist 17.3452
lhand -15.9947 57.619
lfingers 7.12502
lthumb 10.2052 87.3515
rfemur 0.258226 -6.14348 24.0179
rtibia 22.9219
rfoot -27.179 1.90307
rtoes -15.7928
lfemur -29.0507 6.81111 -10.7598
ltibia 53.9238
lfoot -24.9863 20.2914
ltoes -28.2391
675
root -15.8441 15.7466 2.40869 -771.976 -280.627 306.963
lowerback 6.82211 5.28369 3.06536
upperback 0.841392 7.48492 3.96368
thorax -3.07871 3.74775 1.68128
lowerneck 1.19022 -2.85816 -8.01584
upperneck -5.99132 -3.6718 6.8318
head -1.84978 -1.79255 3.74031
rclavicle 1.2424e-016 -2.42517e-014
rhumerus -4.74674 17.8021 -79.1701
rradius 80.8365
rwrist 3.30615
rhand 6.66043 44.0684
rfingers 7.12502
rthumb 31.9524 16.8529
lclavicle 1.2424e-016 -2.42517e-014
lhumerus -59.7754 -11.2413 100.475
lradius 97.8299
lwrist 16.2483
lhand -15.1242 57.7017
lfingers 7.12502
lthumb 11.0449 87.3911
rfemur -0.945067 -9.31492 24.8552
rtibia 22.921
rfoot -26.5193 4.14355
rtoes -18.8288
lfemur -30.4415 6.25843 -9.54053
ltibia 54.8503
lfoot -25.5672 20.235
ltoes -28.7324
676
root -15.8631 15.7307 2.40518 -775.741 -280.907 302.342
lowerback 6.09766 5.22671 3.48004
upperback 0.609252 7.4331 4.31179
thorax -2.91064 3.72736 1.87689
lowerneck 1.05 -2.86138 -8.01805
upperneck -6.16831 -3.65672 6.81666
head -1.88398 -1.77908 3.73562
rclavicle 1.2424e-014 -1.70955e-014
rhumerus -4.98952 17.791 -79.3774
rradius 80.7457
rwrist 3.5987
rhand 6.56173 44.1071
rfingers 7.12502
rthumb 31.8584 16.8729
lclavicle 1.2424e-014 -1.70955e-014
lhumerus -59.1076 -10.9601 99.3222
lradius 97.9111
lwrist 13.557
lhand -15.6071 56.7972
lfingers 7.12502
lthumb 10.5791 86.5109
rfemur -2.46446 -11.7798 25.4788
rtibia 23.5418
rfoot -26.323 5.83247
rtoes -20.1299
lfemur -31.932 5.846 -8.82332
ltibia 55.8194
lfoot -26.4023 20.0487
ltoes -29.5156
677
root -15.9912 15.6822 2.45654 -791.161 -279.578 287.02
lowerback 8.22902 4.43102 2.60446
upperback 0.125516 6.47676 4.56091
thorax -4.72207 3.24684 2.49076
lowerneck 1.04614 -2.90207 -7.85241
upperneck -6.49943 -3.68219 6.93095
head -1.99105 -1.79248 3.75178
rclavicle -4.97956e-014 -2.74323e-014
rhumerus -5.13631 17.6913 -79.5315
rradius 80.6575
rwrist 3.69227
rhand 6.1381 44.3098
rfingers 7.12502
rthumb 31.4549 16.9961
lclavicle -4.97956e-014 -2.74323e-014
lhumerus -58.5399 -10.7973 98.0871
lradius 98.2022
lwrist 9.81086
lhand -17.074 55.3825
lfingers 7.12502
lthumb 9.16398 85.1634
rfemur -2.94878 -12.9733 26.0926
rtibia 24.4931
rfoot -26.8789 3.92066
rtoes -20.4455
lfemur -33.3349 4.66369 -8.72328
ltibia 56.7004
lfoot -25.9285 18.8469
ltoes -31.4674
678
root -15.9885 15.6359 2.44605 -797.485 -279.302 280.396
lowerback 8.0827 4.32925 2.53838
upperback -0.00149608 6.33706 4.58705
thorax -4.77884 3.17998 2.57789
lowerneck 0.9849 -3.08518 -7.82089
upperneck -6.75797 -3.89039 7.22683
head -2.04383 -1.89809 3.85591
rclavicle -9.51185e-014 -2.10712e-014
rhumerus -5.27869 17.4263 -79.3953
rradius 80.7103
rwrist 3.46384
rhand 5.77329 44.5458
rfingers 7.12502
rthumb 31.1073 17.1648
lclavicle -9.51185e-014 -2.10712e-014
lhumerus -59.1904 -13.0337 97.3406
lradius 99.5995
lwrist 7.41535
lhand -19.198 53.7481
lfingers 7.12502
lthumb 7.11402 83.6085
rfemur -3.64451 -12.2434 26.4091
rtibia 25.4556
rfoot -27.471 2.22431
rtoes -19.9534
lfemur -34.209 4.5812 -8.91733
ltibia 57.558
lfoot -25.9966 18.686
ltoes -33.3136
679
root -15.9797 15.6192 2.42407 -804.38 -279.26 273.28
lowerback 8.11712 4.28014 2.83292
upperback -0.122926 6.30824 4.55615
thorax -4.88957 3.157 2.37981
lowerneck 0.705579 -3.38402 -7.92524
upperneck -6.72165 -4.25072 7.61293
head -1.94092 -2.07798 4.0047
rclavicle -5.54609e-014 -3.85642e-014
rhumerus -5.41425 17.0458 -78.9929
rradius 80.9689
rwrist 3.28564
rhand 5.75553 44.4632
rfingers 7.12502
rthumb 31.0903 17.079
lclavicle -5.54609e-014 -3.85642e-014
lhumerus -55.8456 -10.5335 95.8314
lradius 98.5038
lwrist 1.83096
lhand -18.724 51.88
lfingers 7.12502
lthumb 7.57151 81.7245
rfemur -4.10831 -10.5725 26.9646
rtibia 26.2287
rfoot -28.0717 -0.476396
rtoes -19.3752
lfemur -34.6261 4.83586 -9.02217
ltibia 58.0565
lfoot -26.072 18.4714
ltoes -34.2272
680
root -15.9631 15.6086 2.39365 -813.72 -278.818 263.998
lowerback 8.45497 4.24177 2.75126
upperback -0.143417 6.25365 4.37048
thorax -5.08631 3.12338 2.21172
lowerneck 0.155548 -3.81378 -8.24184
upperneck -6.38488 -4.78589 8.04755
head -1.66585 -2.33857 4.19412
rclavicle -8.12532e-014 -7.27552e-014
rhumerus -5.45547 16.4467 -78.2861
rradius 81.3021
rwrist 3.39367
rhand 5.65514 44.067
rfingers 7.12502
rthumb 30.9947 16.6645
lclavicle -8.12532e-014 -7.27552e-014
lhumerus -53.9051 -10.3346 94.9983
lradius 98.9533
lwrist -1.35545
lhand -18.7572 50.8077
lfingers 7.12502
lthumb 7.53949 80.6533
rfemur -4.0155 -8.69116 26.8788
rtibia 26.6633
rfoot -28.6912 -3.70065
rtoes -18.9243
lfemur -34.4093 5.01972 -9.77016
ltibia 58.172
lfoot -26.4081 18.2929
ltoes -34.7689
681
root -15.9311 15.6024 2.36446 -827.356 -278.282 250.916
lowerback 9.1923 4.18651 2.1176
upperback 0.0330216 6.12235 4.14517
thorax -5.35177 3.06372 2.29467
lowerneck -0.357637 -4.29958 -8.55152
upperneck -6.16788 -5.39648 8.39009
head -1.42813 -2.63334 4.34996
rclavicle -4.57702e-014 3.81667e-014
rhumerus -5.29968 15.6838 -77.2919
rradius 81.587
rwrist 3.39097
rhand 5.23988 43.6982
rfingers 7.12502
rthumb 30.5988 16.221
lclavicle -4.57702e-014 3.81667e-014
lhumerus -51.8976 -10.1585 94.4593
lradius 99.6883
lwrist -3.21501
lhand -18.0448 49.9695
lfingers 7.12502
lthumb 8.22709 79.7893
rfemur -3.15995 -7.1603 26.2182
rtibia 26.8673
rfoot -29.294 -7.00047
rtoes -17.9126
lfemur -33.3307 5.07334 -10.981
ltibia 57.7624
lfoot -26.5786 17.9596
ltoes -35.4962
682
root -15.8815 15.5972 2.32538 -843.893 -278.063 235.175
lowerback 10.1101 4.14282 1.26466
upperback 0.322711 5.9656 3.83229
thorax -5.60846 2.99578 2.40618
lowerneck -0.569881 -4.75969 -8.61573
upperneck -6.40244 -5.96889 8.65795
head -1.40218 -2.91307 4.45032
rclavicle 2.18166e-014 -1.39149e-014
rhumerus -5.00295 14.637 -76.1528
rradius 81.9555
rwrist 3.15631
rhand 4.84544 43.5362
rfingers 7.12502
rthumb 30.2225 15.9895
lclavicle 2.18166e-014 -1.39149e-014
lhumerus -49.9299 -9.89921 94.2055
lradius 100.458
lwrist -4.23993
lhand -17.7679 49.365
lfingers 7.12502
lthumb 8.49434 79.1742
rfemur -1.92495 -6.398 25.154
rtibia 26.9594
rfoot -29.6076 -9.83265
rtoes -17.1436
lfemur -31.7754 5.07749 -12.4793
ltibia 56.8507
lfoot -26.2424 17.1121
ltoes -35.1905
683
root -15.8182 15.5961 2.25617 -861.366 -278.261 218.242
lowerback 10.7741 4.15101 0.488455
upperback 0.612207 5.85365 3.37399
thorax -5.69768 2.94649 2.33869
lowerneck -0.659157 -5.25021 -8.89173
upperneck -7.08279 -6.53044 9.46544
head -1.35723 -3.20484 4.31876
rclavicle -6.01324e-015 -2.06736e-014
rhumerus -4.69611 13.0991 -74.8626
rradius 82.4823
rwrist 2.78508
rhand 4.5587 43.5163
rfingers 7.12502
rthumb 29.949 15.9198
lclavicle -6.01324e-015 -2.06736e-014
lhumerus -48.1738 -9.65104 94.4442
lradius 101.342
lwrist -4.4717
lhand -18.4482 49.1651
lfingers 7.12502
lthumb 7.83773 78.9998
rfemur -0.916567 -6.56188 23.5657
rtibia 27.0957
rfoot -29.5911 -12.0675
rtoes -19.2354
lfemur -30.4551 5.14994 -14.4734
ltibia 55.6646
lfoot -25.3677 15.8721
ltoes -33.7661
684
root -15.7403 15.6274 2.16226 -876.212 -279.036 203.564
lowerback 10.9953 4.15879 0.00823074
upperback 0.893338 5.76333 2.89064
thorax -5.51585 2.90256 2.11054
lowerneck -0.608111 -5.77124 -9.58458
upperneck -7.85171 -7.15418 10.1363
head -1.4787 -3.50417 4.64465
rclavicle 5.93372e-014 7.15625e-015
rhumerus -4.29103 11.2524 -73.4428
rradius 83.0535
rwrist 2.24627
rhand 4.28663 43.4578
rfingers 7.12502
rthumb 29.6893 15.8147
lclavicle 5.93372e-014 7.15625e-015
lhumerus -46.6146 -9.34471 95.0972
lradius 102.36
lwrist -3.93343
lhand -19.2143 49.3821
lfingers 7.12502
lthumb 7.09828 79.243
rfemur -0.266948 -6.62576 21.9456
rtibia 27.336
rfoot -29.4088 -14.3793
rtoes -21.9916
lfemur -29.4522 5.52553 -16.6586
ltibia 54.3523
lfoot -25.3922 14.0243
ltoes -34.5534
685
root -15.6519 15.6351 2.06117 -884.775 -280.4 194.833
lowerback 10.6719 4.12162 0.0516534
upperback 1.1713 5.68616 2.55881
thorax -5.00048 2.85975 1.78835
lowerneck -0.742752 -6.33523 -10.0712
upperneck -8.59421 -7.82899 10.5178
head -1.56996 -3.82046 4.84185
rclavicle -7.99611e-014 1.63003e-014
rhumerus -3.63777 9.17795 -71.8454
rradius 83.5691
rwrist 1.63113
rhand 4.11439 43.272
rfingers 7.12502
rthumb 29.5249 15.5998
lclavicle -7.99611e-014 1.63003e-014
lhumerus -45.0355 -9.02528 96.0352
lradius 103.262
lwrist -2.96311
lhand -19.6993 49.7742
lfingers 7.12502
lthumb 6.6301 79.6504
rfemur -0.266812 -5.70588 21.183
rtibia 28.1539
rfoot -29.2604 -17.4277
rtoes -22.7659
lfemur -29.016 5.91399 -18.2939
ltibia 53.2855
lfoot -25.5399 12.0016
ltoes -35.0888
686
root -15.5691 15.633 1.97874 -889.518 -282.521 190.116
lowerback 10.7351 3.93033 0.328749
upperback 1.42716 5.45788 2.42447
thorax -4.71944 2.74316 1.53605
lowerneck -0.547356 -6.7567 -10.3814
upperneck -9.69928 -8.30929 10.9002
head -1.84315 -4.04736 5.03734
rclavicle 7.87187e-014 3.97569e-015
rhumerus -2.85299 6.85919 -70.1222
rradius 83.9382
rwrist 1.14944
rhand 4.17118 43.2482
rfingers 7.12502
rthumb 29.5791 15.5855
lclavicle 7.87187e-014 3.97569e-015
lhumerus -43.5743 -8.93006 97.2198
lradius 104.055
lwrist -1.83011
lhand -19.9862 50.196
lfingers 7.12502
lthumb 6.35314 80.0807
rfemur -0.508133 -4.33184 21.3139
rtibia 29.9031
rfoot -29.1953 -21.2144
rtoes -22.0676
lfemur -28.4794 5.7156 -19.1858
ltibia 52.3198
lfoot -25.9184 9.70164
ltoes -36.7006
